<svg id="Layer_1" enable-background="new 0 0 512 512" height="512" viewBox="0 0 512 512" width="512" xmlns="http://www.w3.org/2000/svg"><g><path d="m496 176c8.836 0 16-7.164 16-16v-80c0-7.249-4.874-13.592-11.877-15.46l-240-64c-2.701-.72-5.544-.72-8.245 0l-240 64c-7.004 1.868-11.878 8.211-11.878 15.46v80c0 8.836 7.164 16 16 16h32v304h-32c-8.836 0-16 7.164-16 16s7.164 16 16 16h480c8.836 0 16-7.164 16-16s-7.164-16-16-16h-32v-304zm-464-83.708 224-59.733 224 59.733v51.708h-448zm168 83.708v304h-48v-304zm32 0h48v304h-48zm80 0h48v304h-48zm-232 0h40v304h-40zm352 304h-40v-304h40z"/></g></svg>