<svg xmlns="http://www.w3.org/2000/svg" height="464pt" version="1.1" viewBox="0 0 464 464" width="464pt">
<g id="surface1">
<path d="M 56 176 L 88 176 L 88 320 L 56 320 Z M 56 176 " style=" stroke:none;fill-rule:nonzero;fill:rgb(60.784314%,78.823529%,100%);fill-opacity:1;" />
<path d="M 16 384 L 0 384 L 0 416 L 192 416 L 192 384 Z M 16 384 " style=" stroke:none;fill-rule:nonzero;fill:rgb(0%,30.980392%,67.45098%);fill-opacity:1;" />
<path d="M 192 352 L 16 352 L 16 384 L 192 384 Z M 192 352 " style=" stroke:none;fill-rule:nonzero;fill:rgb(0%,42.745098%,94.117647%);fill-opacity:1;" />
<path d="M 104 320 L 40 320 L 40 352 L 104 352 Z M 104 320 " style=" stroke:none;fill-rule:nonzero;fill:rgb(14.117647%,53.333333%,100%);fill-opacity:1;" />
<path d="M 104 176 L 104 144 L 40 144 L 40 176 Z M 104 176 " style=" stroke:none;fill-rule:nonzero;fill:rgb(34.117647%,64.313725%,100%);fill-opacity:1;" />
<path d="M 376 176 L 408 176 L 408 288 L 376 288 Z M 376 176 " style=" stroke:none;fill-rule:nonzero;fill:rgb(60.784314%,78.823529%,100%);fill-opacity:1;" />
<path d="M 360 176 L 424 176 L 424 144 L 360 144 Z M 360 176 " style=" stroke:none;fill-rule:nonzero;fill:rgb(34.117647%,64.313725%,100%);fill-opacity:1;" />
<path d="M 160 176 L 160 320 L 192 320 L 192 176 Z M 160 176 " style=" stroke:none;fill-rule:nonzero;fill:rgb(60.784314%,78.823529%,100%);fill-opacity:1;" />
<path d="M 144 320 L 144 352 L 192 352 L 192 320 Z M 144 320 " style=" stroke:none;fill-rule:nonzero;fill:rgb(14.117647%,53.333333%,100%);fill-opacity:1;" />
<path d="M 160 176 L 208 176 L 208 144 L 144 144 L 144 176 Z M 160 176 " style=" stroke:none;fill-rule:nonzero;fill:rgb(34.117647%,64.313725%,100%);fill-opacity:1;" />
<path d="M 272 176 L 304 176 L 304 288 L 272 288 Z M 272 176 " style=" stroke:none;fill-rule:nonzero;fill:rgb(60.784314%,78.823529%,100%);fill-opacity:1;" />
<path d="M 272 176 L 320 176 L 320 144 L 256 144 L 256 176 Z M 272 176 " style=" stroke:none;fill-rule:nonzero;fill:rgb(34.117647%,64.313725%,100%);fill-opacity:1;" />
<path d="M 0 64 L 0 144 L 464 144 L 464 64 L 232 0 Z M 432 112 L 32 112 L 32 88.367188 L 232 33.167969 L 432 88.367188 Z M 432 112 " style=" stroke:none;fill-rule:nonzero;fill:rgb(74.117647%,85.882353%,100%);fill-opacity:1;" />
<path d="M 32 88.367188 L 32 112 L 432 112 L 432 88.367188 L 232 33.167969 Z M 248 72 C 248 80.835938 240.835938 88 232 88 C 223.164062 88 216 80.835938 216 72 C 216 63.164062 223.164062 56 232 56 C 240.835938 56 248 63.164062 248 72 Z M 248 72 " style=" stroke:none;fill-rule:nonzero;fill:rgb(60.784314%,78.823529%,100%);fill-opacity:1;" />
<path d="M 248 72 C 248 80.835938 240.835938 88 232 88 C 223.164062 88 216 80.835938 216 72 C 216 63.164062 223.164062 56 232 56 C 240.835938 56 248 63.164062 248 72 Z M 248 72 " style=" stroke:none;fill-rule:nonzero;fill:rgb(14.117647%,53.333333%,100%);fill-opacity:1;" />
<path d="M 304 288 L 208 288 C 199.164062 288 192 295.164062 192 304 L 192 320 L 464 320 L 464 304 C 464 295.164062 456.835938 288 448 288 Z M 304 288 " style=" stroke:none;fill-rule:nonzero;fill:rgb(100%,85.490196%,66.666667%);fill-opacity:1;" />
<path d="M 192 384 L 192 448 C 192 456.835938 199.164062 464 208 464 L 448 464 C 456.835938 464 464 456.835938 464 448 L 464 352 L 192 352 Z M 384 400 C 392.835938 400 400 407.164062 400 416 C 400 407.164062 407.164062 400 416 400 C 424.835938 400 432 407.164062 432 416 C 432 424.835938 424.835938 432 416 432 C 407.164062 432 400 424.835938 400 416 C 400 424.835938 392.835938 432 384 432 C 375.164062 432 368 424.835938 368 416 C 368 407.164062 375.164062 400 384 400 Z M 336 416 Z M 240 416 Z M 240 416 " style=" stroke:none;fill-rule:nonzero;fill:rgb(100%,85.490196%,66.666667%);fill-opacity:1;" />
<path d="M 192 320 L 464 320 L 464 352 L 192 352 Z M 192 320 " style=" stroke:none;fill-rule:nonzero;fill:rgb(34.117647%,33.72549%,36.078431%);fill-opacity:1;" />
<path d="M 396 402.761719 C 390.15625 393.925781 379.210938 389.964844 369.070312 393.015625 C 358.925781 396.066406 351.984375 405.40625 351.984375 416 C 351.984375 426.59375 358.925781 435.933594 369.070312 438.984375 C 379.210938 442.035156 390.15625 438.074219 396 429.238281 C 390.667969 421.21875 390.667969 410.78125 396 402.761719 Z M 396 402.761719 " style=" stroke:none;fill-rule:nonzero;fill:rgb(100%,31.372549%,13.72549%);fill-opacity:1;" />
<path d="M 416 392 C 407.949219 391.996094 400.433594 396.039062 396 402.761719 C 401.332031 410.78125 401.332031 421.21875 396 429.238281 C 402.324219 438.804688 414.53125 442.558594 425.136719 438.199219 C 435.742188 433.84375 441.785156 422.589844 439.5625 411.34375 C 437.335938 400.09375 427.464844 391.992188 416 392 Z M 416 392 " style=" stroke:none;fill-rule:nonzero;fill:rgb(100%,68.627451%,27.45098%);fill-opacity:1;" />
<path d="M 396 402.761719 C 390.667969 410.78125 390.667969 421.21875 396 429.238281 C 401.332031 421.21875 401.332031 410.78125 396 402.761719 Z M 396 402.761719 " style=" stroke:none;fill-rule:nonzero;fill:rgb(100%,46.666667%,32.941176%);fill-opacity:1;" />
<path d="M 240 424 L 224 424 C 219.582031 424 216 420.417969 216 416 C 216 411.582031 219.582031 408 224 408 L 240 408 C 244.417969 408 248 411.582031 248 416 C 248 420.417969 244.417969 424 240 424 Z M 240 424 " style=" stroke:none;fill-rule:nonzero;fill:rgb(100%,65.490196%,20%);fill-opacity:1;" />
<path d="M 328 424 L 264 424 C 259.582031 424 256 420.417969 256 416 C 256 411.582031 259.582031 408 264 408 L 328 408 C 332.417969 408 336 411.582031 336 416 C 336 420.417969 332.417969 424 328 424 Z M 328 424 " style=" stroke:none;fill-rule:nonzero;fill:rgb(100%,65.490196%,20%);fill-opacity:1;" />
</g>
</svg>