<?xml version="1.0" encoding="iso-8859-1"?>
<!-- Generator: Adobe Illustrator 19.0.0, SVG Export Plug-In . SVG Version: 6.00 Build 0)  -->
<svg version="1.1" id="Capa_1" xmlns="http://www.w3.org/2000/svg" xmlns:xlink="http://www.w3.org/1999/xlink" x="0px" y="0px"
	 viewBox="0 0 56.48 56.48" style="enable-background:new 0 0 56.48 56.48;" xml:space="preserve">
<g>
	<g>
		<path d="M39.768,27.982c-0.701-0.17-1.524,0.442-1.617,1.221c0.453,0.093,1.378-0.019,1.732-0.203
			c0.244-0.127,0.367-0.337,0.33-0.582C40.174,28.167,40.006,28.041,39.768,27.982z"/>
	</g>
</g>
<g>
	<g>
		<path d="M8.411,25.982c-0.416-0.148-0.846-0.116-1.272-0.06c-0.052,0.008-0.123,0.087-0.135,0.144
			c-0.151,0.768-0.294,1.535-0.457,2.4c0.359,0,0.679,0.027,0.992-0.007c0.607-0.065,1.1-0.34,1.371-0.919
			C9.219,26.885,8.997,26.19,8.411,25.982z"/>
	</g>
</g>
<g>
	<g>
		<path d="M55.026,9.939H1.454C0.65,9.939,0,10.59,0,11.393v33.694c0,0.803,0.65,1.455,1.454,1.455h53.572
			c0.804,0,1.454-0.651,1.454-1.454V11.393C56.48,10.591,55.83,9.939,55.026,9.939z M17.346,20.84
			c0.15,0.055,0.307,0.14,0.415,0.256c0.932,0.988,1.518,2.148,1.678,3.507c0.031,0.262,0.045,0.526,0.067,0.789
			c-0.016,0.818-0.162,1.61-0.442,2.377c-0.03,0.082-0.089,0.156-0.144,0.226c-0.13,0.171-0.269,0.185-0.367-0.001
			c-0.128-0.245-0.236-0.508-0.298-0.777c-0.189-0.828-0.363-1.66-0.522-2.494c-0.203-1.067-0.386-2.138-0.575-3.207
			c-0.028-0.154-0.041-0.311-0.054-0.466C17.09,20.872,17.191,20.784,17.346,20.84z M8.703,29.638
			c-0.72,0.239-1.454,0.293-2.2,0.225c-0.176-0.018-0.229,0.029-0.259,0.195c-0.156,0.859-0.324,1.719-0.494,2.576
			c-0.012,0.068-0.074,0.18-0.116,0.181c-0.525,0.013-1.051,0.009-1.613,0.009c0.08-0.441,0.149-0.846,0.226-1.248
			c0.423-2.22,0.851-4.439,1.271-6.66c0.026-0.14,0.067-0.237,0.212-0.259c1.099-0.166,2.199-0.278,3.296-0.007
			c0.958,0.236,1.623,0.907,1.736,1.698C10.991,27.926,10.073,29.187,8.703,29.638z M15.682,32.833
			c-0.363-0.012-0.729-0.012-1.092-0.001c-0.187,0.008-0.249-0.062-0.231-0.244c0.027-0.291,0.038-0.584,0.058-0.892
			c-0.295,0.308-0.528,0.616-0.824,0.844c-0.614,0.474-1.317,0.583-2.029,0.255c-0.704-0.322-0.993-0.949-1.022-1.688
			c-0.063-1.552,0.477-2.836,1.787-3.73c0.822-0.561,1.764-0.733,2.741-0.678c0.499,0.028,0.994,0.147,1.492,0.215
			c0.201,0.029,0.228,0.14,0.195,0.314c-0.22,1.158-0.457,2.313-0.647,3.476c-0.102,0.618-0.132,1.248-0.172,1.874
			C15.926,32.765,15.881,32.841,15.682,32.833z M17.388,34.859c-0.317,0.527-0.52,1.12-0.78,1.681
			c-0.04,0.084-0.131,0.229-0.161,0.219c-0.113-0.034-0.273-0.099-0.302-0.188c-0.071-0.219-0.14-0.471-0.098-0.688
			c0.225-1.177,0.713-2.263,1.26-3.321c1.061-2.052,2.39-3.921,3.943-5.623c0.884-0.968,1.801-1.909,2.745-2.817
			c1.42-1.366,3-2.521,4.764-3.415c0.814-0.412,1.663-0.721,2.559-0.889c0.15-0.029,0.299-0.065,0.447-0.097
			c0,0,1.848-0.356,2.658,1.031c0,0,0.221,0.337,0.178,0.449c-0.051,0.13-0.264,0.255-0.42,0.277
			c-1.479,0.22-2.914,0.607-4.291,1.173c-0.8,0.328-1.575,0.725-2.338,1.134c-1.661,0.891-3.01,2.177-4.326,3.497
			c-1.394,1.396-2.697,2.872-3.834,4.482C18.683,32.768,18.021,33.807,17.388,34.859z M28.69,31.086
			c-0.664,1.242-1.722,1.846-2.792,1.877c-1.554,0.004-2.439-0.572-2.765-1.607c-0.534-1.701,0.492-4.357,3.004-4.636
			c0.752-0.083,1.454,0.011,2.071,0.469c0.587,0.436,0.872,1.043,0.917,1.765C29.172,29.703,29.045,30.422,28.69,31.086z
			 M35.373,30.085c-0.162,0.851-0.322,1.7-0.494,2.548c-0.016,0.074-0.104,0.189-0.162,0.191c-0.504,0.013-1.009,0.004-1.513,0
			c-0.023,0-0.044-0.018-0.092-0.04c0.09-0.49,0.188-0.98,0.276-1.472c0.133-0.754,0.263-1.51,0.385-2.266
			c0.019-0.129,0.011-0.265-0.004-0.395c-0.048-0.451-0.377-0.661-0.815-0.52c-0.424,0.135-0.675,0.461-0.883,0.825
			c-0.306,0.534-0.413,1.126-0.517,1.722c-0.114,0.647-0.23,1.297-0.359,1.943c-0.014,0.076-0.103,0.195-0.162,0.197
			c-0.517,0.016-1.037,0.009-1.611,0.009c0.372-2.015,0.735-3.993,1.101-5.986c0.497,0,0.972,0,1.489,0
			c-0.025,0.317-0.049,0.621-0.074,0.935c0.171-0.161,0.322-0.308,0.48-0.446c0.579-0.505,1.246-0.729,2.014-0.603
			c0.635,0.104,1.074,0.571,1.146,1.221C35.658,28.672,35.508,29.377,35.373,30.085z M40.868,30.062
			c-0.549,0.272-1.142,0.375-1.746,0.411c-0.378,0.022-0.758,0.004-1.146,0.004c-0.039,0.609,0.373,1.041,0.994,1.117
			c0.604,0.074,1.186-0.022,1.75-0.238c0.062-0.023,0.124-0.047,0.186-0.068c0.013-0.005,0.032-0.001,0.074-0.001
			c0.034,0.354,0.078,0.713,0.096,1.071c0.002,0.07-0.078,0.184-0.145,0.211c-0.979,0.402-1.996,0.541-3.028,0.273
			c-0.964-0.248-1.49-0.938-1.597-1.902c-0.152-1.364,0.247-2.562,1.31-3.465c0.875-0.745,1.9-0.978,3.015-0.646
			c0.743,0.221,1.159,0.776,1.215,1.546C41.9,29.132,41.57,29.711,40.868,30.062z M46.662,30.088
			c-0.736,0.342-1.527,0.392-2.322,0.409c-0.164,0.003-0.328,0-0.502,0c-0.057,0.577,0.357,1.019,0.984,1.095
			c0.586,0.07,1.152-0.017,1.703-0.219c0.092-0.033,0.184-0.068,0.306-0.113c0.039,0.379,0.082,0.737,0.101,1.094
			c0.003,0.07-0.075,0.185-0.143,0.212c-0.996,0.409-2.025,0.549-3.074,0.263c-0.942-0.258-1.439-0.944-1.552-1.884
			c-0.146-1.201,0.162-2.289,1-3.178c0.9-0.955,2.015-1.296,3.291-0.944c0.782,0.216,1.198,0.778,1.246,1.57
			C47.747,29.167,47.395,29.75,46.662,30.088z M52.143,28.291c-0.01,0.042-0.086,0.095-0.137,0.103
			c-1.159,0.152-1.643,0.562-1.932,1.746c-0.201,0.824-0.333,1.664-0.502,2.496c-0.013,0.069-0.074,0.18-0.116,0.181
			c-0.542,0.012-1.084,0.008-1.661,0.008c0.078-0.435,0.146-0.829,0.223-1.224c0.304-1.52,0.619-3.038,0.744-4.588
			c0.004-0.064,0.092-0.172,0.143-0.174c0.443-0.014,0.891-0.008,1.374-0.008c-0.034,0.417-0.066,0.807-0.097,1.198
			c0.541-0.795,1.164-1.437,2.277-1.321C52.35,27.263,52.252,27.778,52.143,28.291z"/>
	</g>
</g>
<g>
	<g>
		<path d="M45.641,27.989c-0.696-0.192-1.559,0.442-1.637,1.265c0.373-0.025,0.729-0.029,1.075-0.076
			c0.231-0.031,0.468-0.103,0.683-0.196c0.23-0.101,0.34-0.31,0.304-0.567C46.032,28.167,45.864,28.049,45.641,27.989z"/>
	</g>
</g>
<g>
	<g>
		<path d="M13.387,28.361c-0.751,0.632-1.09,1.457-1.025,2.435c0.019,0.301,0.133,0.588,0.449,0.717
			c0.318,0.127,0.607,0.035,0.852-0.174c0.149-0.127,0.288-0.276,0.393-0.439c0.556-0.855,0.57-1.855,0.774-2.824
			C14.261,27.917,13.787,28.026,13.387,28.361z"/>
	</g>
</g>
<g>
	<g>
		<path d="M27.298,28.94c-0.055-0.673-0.565-1.033-1.188-0.892c-0.303,0.069-0.53,0.26-0.712,0.504
			c-0.407,0.552-0.571,1.182-0.59,1.854c0,0.091-0.006,0.183,0.001,0.272c0.048,0.612,0.487,1.012,1.064,0.959
			c0.322-0.03,0.577-0.199,0.771-0.446C27.165,30.531,27.369,29.765,27.298,28.94z"/>
	</g>
</g>
<g>
</g>
<g>
</g>
<g>
</g>
<g>
</g>
<g>
</g>
<g>
</g>
<g>
</g>
<g>
</g>
<g>
</g>
<g>
</g>
<g>
</g>
<g>
</g>
<g>
</g>
<g>
</g>
<g>
</g>
</svg>
